#!OML:ASF F:\VICON\USERDATA\INSTALL\rory3\rory3.ASF
:FULLY-SPECIFIED
:DEGREES
18
root -1.3999261732829738 17.79429775165471 -21.63268671524485 4.520595862647928 -0.9183019569857254 -2.8685819068657596
lfemur -49.287686591595325 6.183181738324933 -18.634905079548155
ltibia 87.8254903301138
lfoot 2.278470365036578 -11.361999394513719
ltoes -9.379561721345404
rfemur 5.657670791643676 6.058044843225794 29.86089512519486
rtibia 38.806408763025516
rfoot -0.872553467142434 -5.972325185272078
rtoes -19.97278333666782
lowerback 14.653904692340381 1.7450840712756317 5.302058871141677
upperback -0.006313101331476945 3.3058423790172515 1.0683087272510536
thorax -8.007518039957686 1.4090028065069324 -2.5492082764974016
lowerneck -17.52451057519814 -5.249244682453828 -1.908958930692144
upperneck 14.947492282520061 -7.1048758125400395 2.3699773815797287
head 7.636657618836999 -3.2644941924776036 0.2624047516062079
lclavicle -2.0490565605391914e-17 4.2580991995321283e-16
lhumerus -64.91479066098731 -7.339938753896938 95.75018905431773
lradius 91.91800642764407
lwrist 35.11339779148211
lhand -29.174499434831333 2.4897917431946572
lfingers 7.125019999999998
lthumb -2.520249432654702 32.45460173218321
rclavicle -2.0490565605391914e-17 4.2580991995321283e-16
rhumerus -23.538913586604547 16.08919414137177 -93.45220522988234
rradius 121.00898657754526
rwrist -22.69019288512028
rhand -20.634890916653816 50.700568133026536
rfingers 7.125019999999998
rthumb 5.72686908350789 20.79796822841614
19
root -1.3676171173972305 17.90929579814746 -21.0448869754986 4.657504810685771 -1.0021147380834208 -2.5543128475598693
lfemur -48.95758675191432 5.607892975726674 -19.128704343289776
ltibia 83.38769183611885
lfoot 2.161480435947369 -10.966799985730423
ltoes -8.968962127082117
rfemur 7.896059828560718 6.156294674333707 29.15199625057779
rtibia 36.23810959888915
rfoot 5.387160967692438 -5.053347051611114
rtoes -18.41188444060187
lowerback 13.965808883079196 1.9878923849575316 5.066699475798371
upperback -0.231574560533929 3.5487613918939735 0.9946583154519103
thorax -7.852470641528751 1.5373815612643527 -2.517138417171282
lowerneck -17.212312389652798 -5.311504259786665 -1.8822095039795723
upperneck 15.238990600163163 -7.188735438405675 2.245128300138231
head 7.675226788741292 -3.314983666699466 0.21134824277393865
lclavicle -2.0490523275079425e-17 4.2580996276556003e-16
lhumerus -66.14398969085924 -6.1761516101718295 95.39809012366541
lradius 92.42000611711251
lwrist 35.240897198626975
lhand -28.760100562686514 1.683702601358716
lfingers 7.125019999999998
lthumb -2.119990561201918 31.65290259496374
rclavicle -2.0490523275079425e-17 4.2580996276556003e-16
rhumerus -23.2583137728897 16.28749385676954 -92.93270724793655
rradius 121.32398632808598
rwrist -22.152394449257947
rhand -19.59119628185263 46.6272815950384
rfingers 7.125019999999998
rthumb 6.734443717186326 16.75438163819679
20
root -1.3500576305091572 18.004294184380598 -20.508087213171542 4.20009832524285 0.15164724851985545 -2.3129635699849227
lfemur -48.242487099215516 3.990426454772372 -19.342804024065558
ltibia 78.76069340633052
lfoot 1.4780708501805837 -10.888700102567531
ltoes -11.212299910313012
rfemur 10.574588676104371 5.43354591674343 28.91689662380042
rtibia 33.60771045496349
rfoot 11.84209729134042 -5.431496283633447
rtoes -16.93728548350092
lowerback 15.913797019165223 1.8220435367875893 4.7818102077011675
upperback -1.2839194951116426 3.458121760216277 1.0751586725447244
thorax -10.147382134753347 1.4157127414221997 -2.373649046584895
lowerneck -16.922214075665924 -5.4515033093625975 -1.9318884392723032
upperneck 16.437483683165752 -7.3744246099653035 2.0310498751883093
head 8.020409359632218 -3.4147026282642123 0.11663800890205256
lclavicle -2.049064552003096e-17 4.2580986791980745e-16
lhumerus -68.66698769961853 -5.196374014833335 95.27699049145299
lradius 93.18320564500559
lwrist 35.173397512491455
lhand -28.628000922217566 0.9468633857991748
lfingers 7.125019999999998
lthumb -1.992400920946431 30.9173033866082
rclavicle -2.049064552003096e-17 4.2580986791980745e-16
rhumerus -24.593412886541422 16.14219406530561 -92.7790078450009
rradius 121.5859861205992
rwrist -21.008397776467877
rhand -19.443597040598764 45.971683761757035
rfingers 7.125019999999998
rthumb 6.876942958238329 16.103383797106474
21
root -1.2815739422679782 17.9642957855556 -17.43427602291676 4.462305253172155 -0.008076215760997929 -1.8091186301369528
lfemur -46.69799108607839 3.728264946088363 -18.821923909174316
ltibia 74.40106326044217
lfoot 1.3020078406190345 -11.455602759850922
ltoes -11.38182214010039
rfemur 12.059173339025351 6.068022125436594 29.61791037142941
rtibia 31.828602872734734
rfoot 17.76470408680126 -5.709587427497472
rtoes -9.65809647350931
lowerback 15.801060192223929 2.055030964687828 3.304563697321374
upperback -1.0446846357691362 3.409314708173095 0.5927001972145656
thorax -9.595486575961182 1.3888859700497616 -2.286189551184858
lowerneck -17.204699174639142 -5.485346259101138 -2.003930235134222
upperneck 15.34406347473721 -7.446496250247044 2.212179871413899
head 7.691877439572226 -3.4738005100849776 0.362172768996435
lclavicle -2.0490533226280577e-17 4.258099200000372e-16
lhumerus -68.98182067334032 -4.337374512014756 94.4778421404936
lradius 94.10083976828332
lwrist 35.51611937689873
lhand -27.31547067479197 0.5232051880749689
lfingers 7.125019999999998
lthumb -0.9535769453476102 30.41421640436136
rclavicle -2.049053336387604e-17 4.258099199080667e-16
rhumerus -25.78330885111311 17.338883993689546 -93.4835123373346
rradius 120.97288184480112
rwrist -20.341754515544523
rhand -19.983257508160715 45.65681008724378
rfingers 7.125019999999998
rthumb 6.322069453115429 16.141952919636942
22
root -1.2179752055641448 17.95691951968966 -17.27707756310552 4.606597157473076 -0.04126187366293532 -1.345781002196076
lfemur -45.396646429489934 3.4735947170398838 -19.668779572329964
ltibia 69.81493006905582
lfoot 1.6770438265442775 -12.580470658515202
ltoes -11.292323380659353
rfemur 13.410056032266558 6.860583209775341 29.287128417074545
rtibia 30.647481746579402
rfoot 23.240808886994593 -5.9859078142791375
rtoes -2.9094125707185814
lowerback 15.479675857062842 2.170419188319803 3.008448200894422
upperback -0.9412506569727677 3.4350582473284885 0.1870871666475049
thorax -9.154029750396894 1.448124778219451 -2.4301398564156003
lowerneck -17.26321915540039 -5.604120180580217 -2.0325207758790524
upperneck 14.453089986612621 -7.704309262319397 2.4577490639044592
head 7.365978448452243 -3.571074249247701 0.4019408720818021
lclavicle -2.0490533197395085e-17 4.2580992001659993e-16
lhumerus -69.58100628734677 -3.588052802513027 93.70437311707231
lradius 94.83746485973029
lwrist 35.86600400506969
lhand -26.168666160700894 0.5685771915510736
lfingers 7.125019999999998
lthumb -0.05215561584976225 30.470062479780317
rclavicle -2.049053335496649e-17 4.258099199116882e-16
rhumerus -25.926370433946644 18.564412405704843 -93.74951743874982
rradius 120.51662527866762
rwrist -19.893613145195474
rhand -20.151965246083012 45.270815025686666
rfingers 7.125019999999998
rthumb 6.140297516053305 15.840145499555407
23
root -1.1018632272598103 17.91347775681605 -14.292428598095778 4.344858610330837 0.0017826882980425118 -0.5456953745105181
lfemur -43.71531413448519 3.2655058430085484 -20.819367501122187
ltibia 65.11012062296507
lfoot 2.5802384643958813 -14.327743843222734
ltoes -11.06750683384687
rfemur 14.484605009208535 7.280462646366914 28.570668675271573
rtibia 30.256170426844385
rfoot 27.241099212994495 -5.895689369893252
rtoes -0.5968261299064084
lowerback 15.070499458321589 2.2220536022450794 2.650537003675512
upperback -0.9373157409609456 3.375872602750462 -0.32753652835112035
thorax -8.753553642357417 1.3597829677495856 -2.405306238061695
lowerneck -17.17200242366064 -5.706496849455288 -2.074036229181843
upperneck 13.760147358535143 -7.888311777841736 2.7173430105645155
head 7.13777184817123 -3.6125948551341436 0.45649159563170527
lclavicle -2.0490533172311974e-17 4.2580992003109525e-16
lhumerus -70.17755522412962 -2.919172060707173 93.10185824824526
lradius 95.5061364281137
lwrist 36.10666998807376
lhand -25.234025648446256 1.223374146202528
lfingers 7.125019999999998
lthumb 0.7925526195953565 31.17262377477298
rclavicle -2.0490533358171316e-17 4.2580991990785496e-16
rhumerus -25.82150081715902 19.85131181076689 -93.87894336159245
rradius 120.13280110828832
rwrist -19.633892133018737
rhand -20.210862074133797 44.592880997884635
rfingers 7.125019999999998
rthumb 6.213092211179675 14.974887500502373
24
root -1.117129305154968 17.931146821157753 -16.395249788708 4.624110096270465 0.4252848559803588 -0.1338024997146349
lfemur -42.64255368892188 2.861100196815753 -21.558003202171676
ltibia 60.340387349165454
lfoot 3.3036675664489574 -16.370881136056266
ltoes -10.83422279666735
rfemur 14.861057815741043 8.129881208013506 28.42314883703162
rtibia 30.678187585454722
rfoot 29.852141597756333 -6.070475651129874
rtoes 2.2455612782847436
lowerback 14.90444675576697 2.1585287342537427 2.2726190090891816
upperback -1.0211345675484256 3.23348432773124 -0.4717597721271821
thorax -8.693929659649918 1.4005539098656732 -2.2287094473406857
lowerneck -17.058433206280217 -5.778885135833857 -2.053801430199997
upperneck 13.171127592720719 -8.016566241261728 2.957626172680076
head 6.946725636659239 -3.6307644967515413 0.5059567434399747
lclavicle -2.0490533140067315e-17 4.2580992004980486e-16
lhumerus -70.575428809789 -2.257516169610537 92.4967995750176
lradius 96.19558067973483
lwrist 36.20961519538522
lhand -24.70532319343059 1.9444393082667086
lfingers 7.125019999999998
lthumb 1.4563967718686794 32.064223935263456
rclavicle -2.0490533342251268e-17 4.258099199159516e-16
rhumerus -25.82060468802597 21.14615597037239 -94.0314278878305
rradius 119.69012053848334
rwrist -19.429835829731918
rhand -20.174344803466745 44.15806491939252
rfingers 7.125019999999998
rthumb 6.285363351719429 14.238878957448026
